<mxfile host="app.diagrams.net" agent="Mozilla/5.0 (Windows NT 10.0; Win64; x64) AppleWebKit/537.36 (KHTML, like Gecko) Chrome/136.0.0.0 Safari/537.36 Edg/136.0.0.0" version="27.0.1">
  <diagram name="ページ1" id="E7BrTkLixouV0be_wUWo">
    <mxGraphModel dx="1034" dy="578" grid="1" gridSize="10" guides="1" tooltips="1" connect="1" arrows="1" fold="1" page="1" pageScale="1" pageWidth="827" pageHeight="1169" math="0" shadow="0">
      <root>
        <mxCell id="0" />
        <mxCell id="1" parent="0" />
        <mxCell id="8fi8GzwZuvhR6L9CzxKB-1" value="基本アーキテクチャ図" style="rounded=0;whiteSpace=wrap;html=1;fontSize=19;align=center;" vertex="1" parent="1">
          <mxGeometry x="120" y="40" width="230" height="80" as="geometry" />
        </mxCell>
        <mxCell id="8fi8GzwZuvhR6L9CzxKB-2" value="レシピ検索(メイン)" style="rounded=0;whiteSpace=wrap;html=1;fontSize=19;align=center;" vertex="1" parent="1">
          <mxGeometry x="350" y="40" width="540" height="80" as="geometry" />
        </mxCell>
        <mxCell id="8fi8GzwZuvhR6L9CzxKB-3" value="&lt;font style=&quot;font-size: 19px;&quot;&gt;①&lt;/font&gt;" style="text;html=1;align=center;verticalAlign=middle;resizable=0;points=[];autosize=1;strokeColor=none;fillColor=none;fontFamily=Helvetica;fontSize=12;fontColor=default;" vertex="1" parent="1">
          <mxGeometry x="140" y="170" width="40" height="40" as="geometry" />
        </mxCell>
        <mxCell id="8fi8GzwZuvhR6L9CzxKB-4" value="&lt;font style=&quot;font-size: 19px;&quot;&gt;Get&lt;/font&gt;" style="text;html=1;align=center;verticalAlign=middle;resizable=0;points=[];autosize=1;strokeColor=none;fillColor=none;fontFamily=Helvetica;fontSize=12;fontColor=default;" vertex="1" parent="1">
          <mxGeometry x="135" y="210" width="50" height="40" as="geometry" />
        </mxCell>
        <mxCell id="8fi8GzwZuvhR6L9CzxKB-5" value="" style="endArrow=classic;html=1;rounded=0;fontFamily=Helvetica;fontSize=12;fontColor=default;" edge="1" parent="1">
          <mxGeometry width="50" height="50" relative="1" as="geometry">
            <mxPoint x="120" y="214.5" as="sourcePoint" />
            <mxPoint x="210" y="214.5" as="targetPoint" />
          </mxGeometry>
        </mxCell>
        <mxCell id="8fi8GzwZuvhR6L9CzxKB-6" value="&lt;div&gt;&lt;span style=&quot;font-size: 19px;&quot;&gt;Recipe&lt;/span&gt;&lt;/div&gt;&lt;div&gt;&lt;font style=&quot;font-size: 19px;&quot;&gt;doGet()&lt;/font&gt;&lt;/div&gt;" style="strokeWidth=2;html=1;shape=mxgraph.flowchart.terminator;whiteSpace=wrap;rounded=0;strokeColor=default;align=center;verticalAlign=middle;fontFamily=Helvetica;fontSize=12;fontColor=default;fillColor=default;" vertex="1" parent="1">
          <mxGeometry x="210" y="180" width="120" height="70" as="geometry" />
        </mxCell>
        <mxCell id="8fi8GzwZuvhR6L9CzxKB-7" value="&lt;span style=&quot;font-size: 19px;&quot;&gt;②&lt;/span&gt;" style="text;html=1;align=center;verticalAlign=middle;resizable=0;points=[];autosize=1;strokeColor=none;fillColor=none;fontFamily=Helvetica;fontSize=12;fontColor=default;" vertex="1" parent="1">
          <mxGeometry x="360" y="170" width="40" height="40" as="geometry" />
        </mxCell>
        <mxCell id="8fi8GzwZuvhR6L9CzxKB-8" value="&lt;span style=&quot;font-size: 19px;&quot;&gt;Servlet&lt;/span&gt;" style="text;html=1;align=center;verticalAlign=middle;resizable=0;points=[];autosize=1;strokeColor=none;fillColor=none;fontFamily=Helvetica;fontSize=12;fontColor=default;" vertex="1" parent="1">
          <mxGeometry x="230" y="140" width="80" height="40" as="geometry" />
        </mxCell>
        <mxCell id="8fi8GzwZuvhR6L9CzxKB-9" value="" style="endArrow=classic;html=1;rounded=0;fontFamily=Helvetica;fontSize=12;fontColor=default;" edge="1" parent="1">
          <mxGeometry width="50" height="50" relative="1" as="geometry">
            <mxPoint x="330" y="214.5" as="sourcePoint" />
            <mxPoint x="435" y="214.5" as="targetPoint" />
          </mxGeometry>
        </mxCell>
        <mxCell id="8fi8GzwZuvhR6L9CzxKB-11" value="&lt;font style=&quot;font-size: 19px;&quot;&gt;レシピ？ListLogic&lt;/font&gt;&lt;div&gt;&lt;font style=&quot;font-size: 19px;&quot;&gt;execute()&lt;/font&gt;&lt;/div&gt;" style="strokeWidth=2;html=1;shape=mxgraph.flowchart.terminator;whiteSpace=wrap;rounded=0;strokeColor=default;align=center;verticalAlign=middle;fontFamily=Helvetica;fontSize=12;fontColor=default;fillColor=default;" vertex="1" parent="1">
          <mxGeometry x="440" y="175" width="190" height="75" as="geometry" />
        </mxCell>
        <mxCell id="8fi8GzwZuvhR6L9CzxKB-12" value="&lt;font style=&quot;font-size: 19px;&quot;&gt;レシピ？DAO&lt;/font&gt;&lt;div&gt;&lt;span style=&quot;font-size: 19px;&quot;&gt;findLoginUser()&lt;/span&gt;&lt;/div&gt;" style="strokeWidth=2;html=1;shape=mxgraph.flowchart.terminator;whiteSpace=wrap;rounded=0;strokeColor=default;align=center;verticalAlign=middle;fontFamily=Helvetica;fontSize=12;fontColor=default;fillColor=default;" vertex="1" parent="1">
          <mxGeometry x="730" y="175" width="210" height="75" as="geometry" />
        </mxCell>
        <mxCell id="8fi8GzwZuvhR6L9CzxKB-13" value="&lt;span style=&quot;font-size: 19px;&quot;&gt;③&lt;/span&gt;" style="text;html=1;align=center;verticalAlign=middle;resizable=0;points=[];autosize=1;strokeColor=none;fillColor=none;fontFamily=Helvetica;fontSize=12;fontColor=default;" vertex="1" parent="1">
          <mxGeometry x="660" y="170" width="40" height="40" as="geometry" />
        </mxCell>
        <mxCell id="8fi8GzwZuvhR6L9CzxKB-14" value="" style="endArrow=classic;html=1;rounded=0;fontFamily=Helvetica;fontSize=12;fontColor=default;" edge="1" parent="1">
          <mxGeometry width="50" height="50" relative="1" as="geometry">
            <mxPoint x="630" y="214.5" as="sourcePoint" />
            <mxPoint x="730" y="214.5" as="targetPoint" />
          </mxGeometry>
        </mxCell>
        <mxCell id="8fi8GzwZuvhR6L9CzxKB-16" value="&lt;span style=&quot;font-size: 19px;&quot;&gt;BO&lt;/span&gt;" style="text;html=1;align=center;verticalAlign=middle;resizable=0;points=[];autosize=1;strokeColor=none;fillColor=none;fontFamily=Helvetica;fontSize=12;fontColor=default;" vertex="1" parent="1">
          <mxGeometry x="510" y="140" width="50" height="40" as="geometry" />
        </mxCell>
        <mxCell id="8fi8GzwZuvhR6L9CzxKB-17" value="&lt;span style=&quot;font-size: 19px;&quot;&gt;DAO&lt;/span&gt;" style="text;html=1;align=center;verticalAlign=middle;resizable=0;points=[];autosize=1;strokeColor=none;fillColor=none;fontFamily=Helvetica;fontSize=12;fontColor=default;" vertex="1" parent="1">
          <mxGeometry x="805" y="135" width="60" height="40" as="geometry" />
        </mxCell>
        <mxCell id="8fi8GzwZuvhR6L9CzxKB-18" value="&lt;span style=&quot;font-size: 18px;&quot;&gt;レシピ&lt;/span&gt;" style="strokeWidth=2;html=1;shape=mxgraph.flowchart.database;whiteSpace=wrap;rounded=0;strokeColor=default;align=center;verticalAlign=middle;fontFamily=Helvetica;fontSize=12;fontColor=default;fillColor=default;" vertex="1" parent="1">
          <mxGeometry x="1020" y="160" width="110" height="80" as="geometry" />
        </mxCell>
        <mxCell id="8fi8GzwZuvhR6L9CzxKB-19" value="&lt;div&gt;&lt;span style=&quot;font-size: 19px;&quot;&gt;レシピ&lt;/span&gt;&lt;/div&gt;&lt;div&gt;&lt;span style=&quot;font-size: 19px;&quot;&gt;テーブル&lt;/span&gt;&lt;/div&gt;" style="text;html=1;align=center;verticalAlign=middle;resizable=0;points=[];autosize=1;strokeColor=none;fillColor=none;fontFamily=Helvetica;fontSize=12;fontColor=default;" vertex="1" parent="1">
          <mxGeometry x="1025" y="110" width="100" height="60" as="geometry" />
        </mxCell>
        <mxCell id="8fi8GzwZuvhR6L9CzxKB-20" value="" style="endArrow=classic;startArrow=classic;html=1;rounded=0;fontFamily=Helvetica;fontSize=12;fontColor=default;exitX=1;exitY=0.5;exitDx=0;exitDy=0;exitPerimeter=0;entryX=-0.011;entryY=0.675;entryDx=0;entryDy=0;entryPerimeter=0;" edge="1" parent="1" source="8fi8GzwZuvhR6L9CzxKB-12" target="8fi8GzwZuvhR6L9CzxKB-18">
          <mxGeometry width="50" height="50" relative="1" as="geometry">
            <mxPoint x="950" y="219" as="sourcePoint" />
            <mxPoint x="1020" y="216" as="targetPoint" />
          </mxGeometry>
        </mxCell>
        <mxCell id="8fi8GzwZuvhR6L9CzxKB-21" value="&lt;span style=&quot;font-size: 19px;&quot;&gt;④&lt;/span&gt;" style="text;html=1;align=center;verticalAlign=middle;resizable=0;points=[];autosize=1;strokeColor=none;fillColor=none;fontFamily=Helvetica;fontSize=12;fontColor=default;" vertex="1" parent="1">
          <mxGeometry x="980" width="40" height="40" as="geometry" />
        </mxCell>
        <mxCell id="8fi8GzwZuvhR6L9CzxKB-26" value="&lt;font style=&quot;font-size: 19px;&quot;&gt;リクエスト&lt;/font&gt;&lt;div&gt;&lt;font style=&quot;font-size: 19px;&quot;&gt;スコープ&lt;/font&gt;&lt;/div&gt;" style="ellipse;shape=cloud;whiteSpace=wrap;html=1;align=center;rounded=0;strokeColor=default;verticalAlign=middle;fontFamily=Helvetica;fontSize=12;fontColor=default;fillColor=default;" vertex="1" parent="1">
          <mxGeometry x="254" y="350" width="160" height="100" as="geometry" />
        </mxCell>
        <mxCell id="8fi8GzwZuvhR6L9CzxKB-27" value="" style="endArrow=classic;html=1;rounded=0;fontFamily=Helvetica;fontSize=12;fontColor=default;entryX=0.037;entryY=1.1;entryDx=0;entryDy=0;entryPerimeter=0;" edge="1" parent="1" target="8fi8GzwZuvhR6L9CzxKB-28">
          <mxGeometry width="50" height="50" relative="1" as="geometry">
            <mxPoint x="286.72" y="250" as="sourcePoint" />
            <mxPoint x="290" y="380" as="targetPoint" />
          </mxGeometry>
        </mxCell>
        <mxCell id="8fi8GzwZuvhR6L9CzxKB-28" value="&lt;span style=&quot;font-size: 19px;&quot;&gt;⑦&quot;レシピ？List&quot;=List&amp;lt;レシピ？&amp;gt;を保存&lt;/span&gt;" style="text;html=1;align=center;verticalAlign=middle;resizable=0;points=[];autosize=1;strokeColor=none;fillColor=none;fontFamily=Helvetica;fontSize=12;fontColor=default;" vertex="1" parent="1">
          <mxGeometry x="275" y="330" width="360" height="40" as="geometry" />
        </mxCell>
        <mxCell id="8fi8GzwZuvhR6L9CzxKB-29" value="&lt;span style=&quot;font-size: 19px;&quot;&gt;⑧フォワード&lt;/span&gt;" style="text;html=1;align=center;verticalAlign=middle;resizable=0;points=[];autosize=1;strokeColor=none;fillColor=none;fontFamily=Helvetica;fontSize=12;fontColor=default;flipV=1;" vertex="1" parent="1">
          <mxGeometry x="114" y="380" width="140" height="40" as="geometry" />
        </mxCell>
        <mxCell id="8fi8GzwZuvhR6L9CzxKB-30" value="" style="endArrow=classic;html=1;rounded=0;fontFamily=Helvetica;fontSize=12;fontColor=default;" edge="1" parent="1">
          <mxGeometry width="50" height="50" relative="1" as="geometry">
            <mxPoint x="250.00000000000003" y="250" as="sourcePoint" />
            <mxPoint x="253" y="500" as="targetPoint" />
          </mxGeometry>
        </mxCell>
        <mxCell id="8fi8GzwZuvhR6L9CzxKB-31" value="&lt;font style=&quot;font-size: 19px;&quot;&gt;Recipe.jsp&lt;/font&gt;" style="strokeWidth=2;html=1;shape=mxgraph.flowchart.terminator;whiteSpace=wrap;rounded=0;strokeColor=default;align=center;verticalAlign=middle;fontFamily=Helvetica;fontSize=12;fontColor=default;fillColor=default;" vertex="1" parent="1">
          <mxGeometry x="220" y="500" width="120" height="70" as="geometry" />
        </mxCell>
        <mxCell id="8fi8GzwZuvhR6L9CzxKB-32" value="" style="endArrow=classic;html=1;rounded=0;fontFamily=Helvetica;fontSize=12;fontColor=default;" edge="1" parent="1">
          <mxGeometry width="50" height="50" relative="1" as="geometry">
            <mxPoint x="220" y="530" as="sourcePoint" />
            <mxPoint x="140" y="530" as="targetPoint" />
          </mxGeometry>
        </mxCell>
        <mxCell id="8fi8GzwZuvhR6L9CzxKB-33" value="" style="endArrow=classic;html=1;rounded=0;fontFamily=Helvetica;fontSize=12;fontColor=default;edgeStyle=orthogonalEdgeStyle;curved=1;exitX=1;exitY=0.5;exitDx=0;exitDy=0;exitPerimeter=0;" edge="1" parent="1" source="8fi8GzwZuvhR6L9CzxKB-31">
          <mxGeometry width="50" height="50" relative="1" as="geometry">
            <mxPoint x="375" y="530" as="sourcePoint" />
            <mxPoint x="315" y="490" as="targetPoint" />
            <Array as="points">
              <mxPoint x="375" y="535" />
              <mxPoint x="375" y="440" />
              <mxPoint x="315" y="440" />
            </Array>
          </mxGeometry>
        </mxCell>
        <mxCell id="8fi8GzwZuvhR6L9CzxKB-34" value="&lt;span style=&quot;font-size: 19px;&quot;&gt;⑨&quot;レシピ？List&quot;を取得&lt;/span&gt;" style="text;html=1;align=center;verticalAlign=middle;resizable=0;points=[];autosize=1;strokeColor=none;fillColor=none;fontFamily=Helvetica;fontSize=12;fontColor=default;" vertex="1" parent="1">
          <mxGeometry x="390" y="480" width="200" height="40" as="geometry" />
        </mxCell>
        <mxCell id="8fi8GzwZuvhR6L9CzxKB-35" value="&lt;font color=&quot;#ff0000&quot;&gt;&lt;span style=&quot;font-size: 19px;&quot;&gt;名前決まってから修正&lt;/span&gt;&lt;/font&gt;" style="text;html=1;align=center;verticalAlign=middle;resizable=0;points=[];autosize=1;strokeColor=none;fillColor=none;" vertex="1" parent="1">
          <mxGeometry x="530" y="410" width="210" height="40" as="geometry" />
        </mxCell>
      </root>
    </mxGraphModel>
  </diagram>
</mxfile>
